<svg xmlns="http://www.w3.org/2000/svg" xmlns:xlink="http://www.w3.org/1999/xlink" width="194.425" height="98.28" viewBox="0 0 194.425 98.28">
  <defs>
    <linearGradient id="linear-gradient" x1="0.5" x2="0.5" y2="1" gradientUnits="objectBoundingBox">
      <stop offset="0" stop-color="#f7b603" stop-opacity="0"/>
      <stop offset="1" stop-color="#f7b603"/>
    </linearGradient>
    <linearGradient id="linear-gradient-2" x1="0.5" x2="0.5" y2="1" gradientUnits="objectBoundingBox">
      <stop offset="0" stop-color="#f7b603" stop-opacity="0"/>
      <stop offset="0.754" stop-color="#03f74e" stop-opacity="0.667"/>
      <stop offset="1" stop-color="#4dff54"/>
    </linearGradient>
  </defs>
  <g id="Ghost_Logo" data-name="Ghost Logo" transform="translate(-2005 -919)">
    <path id="Path_27" data-name="Path 27" d="M101.52-50.76H54.135v16.47h28.62c-3.24,10.8-12.69,17.955-27.54,17.955-19.71,0-32.265-13.23-32.265-30.78C22.95-65.07,35.91-78.3,53.865-78.3c11.475,0,21.06,5.535,25.38,13.095l15.93-9.18c-7.965-12.96-23.22-22-41.175-22-28.215,0-49.545,21.87-49.545,49.275,0,27,21.06,49.005,50.625,49.005,27.135,0,46.44-18.09,46.44-45.36Zm49.95-18.63c-9.045,0-16.065,3.375-20.115,9.45V-94.5H113.94V0h17.415V-36.45c0-11.745,6.345-16.74,14.85-16.74,7.83,0,13.365,4.725,13.365,13.9V0h17.415V-41.445C176.985-59.4,165.78-69.39,151.47-69.39Z" transform="translate(2022.44 1015.39)" fill="#c9ced5"/>
    <path id="Path_12" data-name="Path 12" d="M17,0A17,17,0,1,1,0,17,17,17,0,0,1,17,0Z" transform="translate(2005 952.724)" fill="url(#linear-gradient)"/>
    <path id="Path_12-2" data-name="Path 12" d="M17,0A17,17,0,1,1,0,17,17,17,0,0,1,17,0Z" transform="translate(2005 952.724)" fill="url(#linear-gradient-2)"/>
  </g>
</svg>
